<?xml version="1.0" encoding="utf-8"?>
<!-- Generator: Adobe Illustrator 27.1.1, SVG Export Plug-In . SVG Version: 6.00 Build 0)  -->
<svg version="1.1" id="Layer_1" xmlns="http://www.w3.org/2000/svg" xmlns:xlink="http://www.w3.org/1999/xlink" x="0px" y="0px"
	 viewBox="0 0 595.28 248.06" style="enable-background:new 0 0 595.28 248.06;" xml:space="preserve">
<style type="text/css">
	.st0{fill:#072068;}
	.st1{fill:#F94F03;}
	.st2{fill:none;stroke:#072068;stroke-width:0.9615;stroke-linecap:round;stroke-linejoin:round;stroke-miterlimit:10;}
	@keyframes rotate {
    	0% {
        	transform: rotate(0deg);
    	}
    	100% {
			transform: rotate(360deg);
    	}
	}
	.animation {
		animation: rotate 7s infinite linear;
		transform-origin: 25%;
	}
</style>
<g>
	<path class="st0" d="M149.39,66.31c-10.64,0-20.6,2.88-29.17,7.91l8.81,6.87c6.18-2.92,13.08-4.56,20.36-4.56
		c26.23,0,47.5,21.27,47.5,47.5c0,26.24-21.27,47.5-47.5,47.5c-8.59,0-16.65-2.28-23.62-6.28l-10.35,5.46
		c9.54,6.94,21.27,11.04,33.96,11.04c31.87,0,57.72-25.83,57.72-57.72C207.11,92.16,181.26,66.31,149.39,66.31z M116.88,89.4
		l-6.17-8.22c-11.69,10.56-19.05,25.85-19.05,42.85c0,14.49,5.33,27.7,14.13,37.85l6.94-7.63c-6.77-8.2-10.85-18.73-10.85-30.22
		C101.88,110.38,107.65,98.06,116.88,89.4z"/>
	<path class="st1" d="M134.36,97.44c1.88,2.11,10.07,11.78,9.66,26.28c-0.35,12.53-6.9,20.9-8.98,23.36
		c9.88-8.01,19.76-16.02,29.65-24.03C154.57,114.51,144.47,105.98,134.36,97.44z"/>
	<path class="st1" d="M283.7,98.42c-12.87,0-23.3,10.43-23.3,23.3c0,12.87,10.43,23.3,23.3,23.3s23.3-10.43,23.3-23.3
		C307,108.86,296.57,98.42,283.7,98.42z M283.7,137.73c-8.84,0-16-7.16-16-16s7.16-16,16-16c8.84,0,16,7.16,16,16
		S292.54,137.73,283.7,137.73z"/>
	<path class="st1" d="M336.93,98.42c-12.87,0-23.3,10.43-23.3,23.3c0,12.87,10.43,23.3,23.3,23.3s23.3-10.43,23.3-23.3
		C360.23,108.86,349.8,98.42,336.93,98.42z M336.93,137.73c-8.84,0-16-7.16-16-16s7.16-16,16-16s16,7.16,16,16
		S345.77,137.73,336.93,137.73z"/>
	<path class="st1" d="M393.53,98.42c-12.87,0-23.3,10.43-23.3,23.3c0,12.87,10.43,23.3,23.3,23.3s23.3-10.43,23.3-23.3
		C416.83,108.86,406.4,98.42,393.53,98.42z M393.53,137.73c-8.84,0-16-7.16-16-16s7.16-16,16-16s16,7.16,16,16
		S402.37,137.73,393.53,137.73z"/>
	<path class="st1" d="M449.86,98.42c-12.87,0-23.3,10.43-23.3,23.3c0,12.87,10.43,23.3,23.3,23.3s23.3-10.43,23.3-23.3
		C473.16,108.86,462.73,98.42,449.86,98.42z M449.86,137.73c-8.84,0-16-7.16-16-16s7.16-16,16-16c8.84,0,16,7.16,16,16
		S458.7,137.73,449.86,137.73z"/>
	<rect x="352.93" y="83.85" class="st1" width="7.93" height="61.17"/>
	<rect x="409.53" y="99.35" class="st1" width="7.93" height="45.68"/>
	<rect x="465.86" y="83.85" class="st1" width="7.93" height="60.25"/>
	<path class="st1" d="M525.66,100.11v44h-7.92v-5.58c-1.24,1.38-2.49,2.38-3.6,3.1c-4.64,3.03-9.92,3.34-14.37,2.75
		c-4.93-0.66-9.39-3.36-11.98-7.61c-0.06-0.1-0.12-0.21-0.18-0.31c-0.01-0.02-0.02-0.03-0.03-0.05c-1.33-2.27-1.93-4.88-1.93-7.5
		v-28.79h7.94v26.67c0,3.14,1.42,6.13,3.91,8.04c2.21,1.7,4.78,2.68,7.39,2.69c5.1,0.01,8.79-3.67,9.77-4.63
		c0.02-0.02,0.04-0.04,0.06-0.06c2-2.02,3.03-4.8,3.03-7.64v-25.07H525.66z"/>
	<g class='animation'>
		<g>
			<line class="st2" x1="147.72" y1="43.96" x2="147.72" y2="52.72"/>
			<line class="st2" x1="149.52" y1="195.34" x2="149.52" y2="204.1"/>
		</g>
		<g>
			<line class="st2" x1="134.84" y1="45.46" x2="136.35" y2="54.09"/>
			<line class="st2" x1="162.69" y1="194.26" x2="164.2" y2="202.89"/>
		</g>
		<g>
			<line class="st2" x1="121.5" y1="48.84" x2="124.37" y2="57.11"/>
			<line class="st2" x1="172.87" y1="191.24" x2="175.75" y2="199.51"/>
		</g>
		<g>
			<line class="st2" x1="110.5" y1="54.26" x2="114.68" y2="61.95"/>
			<line class="st2" x1="184.36" y1="186.4" x2="188.54" y2="194.09"/>
		</g>
		<g>
			<line class="st2" x1="98.89" y1="62.14" x2="104.36" y2="68.99"/>
			<line class="st2" x1="194.69" y1="179.36" x2="200.15" y2="186.21"/>
		</g>
		<g>
			<line class="st2" x1="89.15" y1="71.58" x2="95.69" y2="77.4"/>
			<line class="st2" x1="203.35" y1="170.95" x2="209.89" y2="176.78"/>
		</g>
		<g>
			<line class="st2" x1="81.4" y1="82.1" x2="88.8" y2="86.79"/>
			<line class="st2" x1="210.25" y1="161.57" x2="217.65" y2="166.25"/>
		</g>
		<g>
			<line class="st2" x1="75.62" y1="93.36" x2="83.66" y2="96.82"/>
			<line class="st2" x1="215.38" y1="151.53" x2="223.43" y2="154.99"/>
		</g>
		<g>
			<line class="st2" x1="71.5" y1="106.19" x2="80.01" y2="108.25"/>
			<line class="st2" x1="219.03" y1="140.1" x2="227.55" y2="142.17"/>
		</g>
		<g>
			<line class="st2" x1="69.61" y1="119.1" x2="78.35" y2="119.75"/>
			<line class="st2" x1="220.7" y1="128.6" x2="229.43" y2="129.25"/>
		</g>
		<g>
			<line class="st2" x1="69.85" y1="132.19" x2="78.58" y2="131.41"/>
			<line class="st2" x1="220.47" y1="116.95" x2="229.19" y2="116.17"/>
		</g>
		<g>
			<line class="st2" x1="72.11" y1="144.71" x2="80.61" y2="142.57"/>
			<line class="st2" x1="218.44" y1="105.9" x2="226.93" y2="103.76"/>
		</g>
		<g>
			<line class="st2" x1="76.39" y1="156.78" x2="84.43" y2="153.3"/>
			<line class="st2" x1="214.62" y1="95.05" x2="222.65" y2="91.58"/>
		</g>
		<g>
			<line class="st2" x1="83.11" y1="168.9" x2="90.43" y2="164.09"/>
			<line class="st2" x1="208.62" y1="84.26" x2="215.93" y2="79.45"/>
		</g>
		<g>
			<line class="st2" x1="90.79" y1="178.6" x2="97.28" y2="172.72"/>
			<line class="st2" x1="201.77" y1="75.64" x2="208.26" y2="69.76"/>
		</g>
		<g>
			<line class="st2" x1="100.78" y1="187.71" x2="106.19" y2="180.82"/>
			<line class="st2" x1="192.85" y1="67.54" x2="198.26" y2="60.65"/>
		</g>
		<g>
			<line class="st2" x1="112.39" y1="195.12" x2="116.54" y2="187.41"/>
			<line class="st2" x1="182.5" y1="60.95" x2="186.65" y2="53.23"/>
		</g>
		<g>
			<line class="st2" x1="123.77" y1="199.99" x2="126.68" y2="191.73"/>
			<line class="st2" x1="172.36" y1="56.62" x2="175.27" y2="48.36"/>
		</g>
		<g>
			<line class="st2" x1="136.12" y1="203.12" x2="137.69" y2="194.5"/>
			<line class="st2" x1="161.36" y1="53.85" x2="162.92" y2="45.23"/>
		</g>
	</g>
</g>
</svg>
